<?xml version="1.0" standalone="no"?>
<!DOCTYPE svg PUBLIC "-//W3C//DTD SVG 20010904//EN"
 "http://www.w3.org/TR/2001/REC-SVG-20010904/DTD/svg10.dtd">
<svg version="1.0" xmlns="http://www.w3.org/2000/svg"
 width="512.000000pt" height="512.000000pt" viewBox="0 0 512.000000 512.000000"
 preserveAspectRatio="xMidYMid meet">

<g transform="translate(0.000000,512.000000) scale(0.100000,-0.100000)"
fill="#000000" stroke="none">
<path d="M2460 4003 c-164 -7 -363 -47 -553 -109 -60 -20 -110 -34 -113 -31
-2 2 0 17 6 32 30 78 -62 142 -118 83 -23 -26 -122 -270 -122 -303 0 -12 6
-29 13 -38 18 -24 233 -117 272 -117 39 0 68 29 68 70 0 38 -18 58 -72 82 -24
10 -42 20 -40 23 11 10 184 69 282 96 178 48 284 62 477 63 96 0 211 -6 255
-13 114 -18 297 -65 417 -108 l102 -37 -50 -22 c-60 -26 -77 -45 -77 -84 0
-41 29 -70 68 -70 39 0 254 93 273 117 20 28 14 57 -39 190 -57 144 -78 173
-124 173 -51 0 -81 -46 -65 -101 5 -18 8 -34 7 -36 -2 -1 -44 11 -93 27 -246
84 -526 125 -774 113z"/>
<path d="M1095 3672 c-71 -8 -893 -194 -929 -211 -55 -24 -114 -84 -140 -140
-38 -85 -32 -133 108 -761 70 -316 161 -728 202 -915 42 -186 84 -355 94 -375
48 -93 146 -153 250 -152 79 0 912 182 970 212 58 30 93 64 124 120 48 88 46
130 -18 420 -31 140 -56 261 -56 268 0 7 14 12 39 12 93 0 131 37 139 137 l5
63 147 0 c145 0 147 0 171 -26 46 -51 67 -54 359 -54 292 0 313 3 359 54 24
26 26 26 171 26 l147 0 6 -60 c3 -34 13 -72 22 -86 20 -31 71 -54 120 -54 21
0 35 -5 35 -12 0 -7 -25 -128 -56 -268 -64 -290 -66 -332 -18 -420 31 -56 66
-90 124 -120 53 -27 890 -211 965 -213 102 -1 209 63 255 152 20 40 70 246 70
289 0 45 -26 72 -69 72 -24 0 -44 -7 -54 -18 -9 -10 -28 -68 -42 -129 -14 -62
-29 -122 -34 -136 -20 -51 -122 -108 -107 -59 8 25 446 2017 446 2027 0 14 41
-28 56 -57 8 -15 14 -37 14 -50 0 -12 -66 -322 -146 -687 -112 -507 -145 -670
-138 -690 21 -59 105 -66 131 -11 6 14 75 315 154 670 156 703 162 745 123
831 -26 56 -85 116 -140 140 -63 29 -899 210 -967 210 -108 0 -206 -65 -252
-166 -13 -27 -47 -161 -77 -297 l-53 -246 -140 -4 c-127 -3 -143 -5 -172 -26
-35 -25 -53 -71 -53 -134 l0 -38 -146 0 -146 0 -34 29 c-114 100 -309 37 -223
-73 17 -22 28 -26 70 -26 l49 0 0 -135 0 -135 -250 0 -250 0 0 135 0 135 84 0
c79 0 86 2 105 26 55 70 5 124 -116 124 -87 0 -135 -14 -177 -51 l-34 -29
-144 0 -145 0 -5 63 c-10 119 -29 131 -218 135 l-145 4 -53 246 c-30 136 -64
270 -77 297 -51 112 -170 180 -290 167z m120 -183 c20 -18 39 -46 44 -67 32
-118 401 -1816 401 -1842 0 -34 -31 -95 -53 -103 -10 -4 -65 230 -222 942
-115 520 -216 981 -226 1024 -16 75 -16 77 2 77 10 0 34 -14 54 -31z m2744
-51 c-10 -46 -111 -507 -225 -1025 -187 -846 -209 -941 -225 -933 -21 12 -49
71 -49 105 0 23 373 1733 401 1837 10 40 69 98 98 98 18 0 18 -2 0 -82z
m-2737 -974 c125 -566 224 -1032 220 -1035 -8 -7 -578 -132 -606 -133 -17 -1
-41 96 -247 1029 -125 567 -225 1032 -223 1034 5 6 608 139 619 136 6 -1 112
-465 237 -1031z m3236 962 c161 -35 295 -65 296 -67 5 -5 -447 -2056 -455
-2063 -3 -3 -144 25 -315 63 -303 67 -309 69 -307 92 3 27 440 2016 448 2037
3 7 13 11 22 8 10 -3 150 -34 311 -70z m-4018 -1116 c121 -553 224 -1015 227
-1028 5 -21 3 -22 -23 -12 -37 14 -73 48 -85 79 -14 36 -409 1832 -409 1859 0
13 5 33 11 45 12 23 51 69 55 64 1 -1 102 -454 224 -1007z m1290 245 l0 -255
-35 0 c-19 0 -35 2 -35 4 0 2 -25 116 -55 252 -30 137 -55 250 -55 251 0 2 41
3 90 3 l90 0 0 -255z m1840 253 c0 -2 -25 -115 -55 -253 -30 -137 -55 -250
-55 -252 0 -2 -16 -3 -35 -3 l-35 0 0 255 0 255 90 0 c50 0 90 -1 90 -2z
m-1410 -253 l0 -55 -140 0 -140 0 0 55 0 55 140 0 140 0 0 -55z m1080 0 l0
-55 -140 0 -140 0 0 55 0 55 140 0 140 0 0 -55z"/>
<path d="M847 3309 c-45 -26 -44 -33 94 -658 72 -328 137 -606 145 -618 18
-28 58 -39 90 -24 55 25 56 16 -81 638 -69 318 -131 593 -136 610 -17 54 -68
77 -112 52z"/>
<path d="M525 3225 c-14 -13 -25 -32 -25 -42 0 -35 52 -258 66 -279 27 -44
104 -37 126 11 16 36 -37 281 -69 313 -29 29 -68 28 -98 -3z"/>
<path d="M635 2735 c-14 -13 -25 -34 -25 -47 0 -13 59 -288 130 -613 140 -633
141 -635 202 -635 38 0 68 32 68 74 0 18 -58 298 -130 622 -139 630 -137 624
-197 624 -13 0 -35 -11 -48 -25z"/>
<path d="M1170 1877 c-44 -22 -47 -54 -16 -194 19 -87 34 -135 49 -150 35 -38
99 -25 117 23 7 18 2 60 -20 157 -24 110 -33 136 -55 155 -30 25 -40 27 -75 9z"/>
<path d="M4193 3305 c-12 -8 -26 -30 -32 -48 -5 -17 -67 -292 -136 -610 -137
-622 -136 -613 -81 -638 32 -15 72 -4 90 24 8 12 73 290 145 618 139 629 139
633 92 658 -27 15 -53 14 -78 -4z"/>
<path d="M4497 3228 c-32 -32 -85 -277 -69 -313 22 -48 99 -55 126 -11 14 21
66 244 66 279 0 27 -45 67 -75 67 -14 0 -36 -10 -48 -22z"/>
<path d="M4391 2743 c-18 -15 -42 -111 -151 -607 -72 -324 -130 -604 -130
-622 0 -42 30 -74 68 -74 61 0 62 2 202 635 71 325 130 600 130 613 0 30 -43
72 -73 72 -14 0 -34 -8 -46 -17z"/>
<path d="M3876 1868 c-23 -19 -32 -44 -56 -155 -22 -97 -27 -139 -20 -157 18
-48 82 -61 117 -23 14 14 30 62 47 139 31 139 32 159 9 186 -28 33 -66 37 -97
10z"/>
</g>
</svg>
